<?xml version="1.0" encoding="UTF-8"?>
<svg id="Layer_2" data-name="Layer 2" xmlns="http://www.w3.org/2000/svg" viewBox="0 0 66.39 13.47">
  <defs>
    <style>
      .cls-1 {
        fill: #fff;
      }
    </style>
  </defs>
  <g id="grafiko">
    <g>
      <path class="cls-1" d="m0,4.02l2.5-.74,3.43,5.64,3.46-5.64,2.46.74-5.89,9.45L0,4.02Z"/>
      <path class="cls-1" d="m15.69,10.74h3.34v2.34h-5.91V3.48h5.9v2.34h-3.33v1.38h3.2v2.16h-3.2v1.38Z"/>
      <path class="cls-1" d="m27.33,13.26l-2.51-3.38h-.89v3.2h-2.58V3.48h3.46c2.36,0,3.78,1.2,3.78,3.19,0,1.22-.46,2.14-1.35,2.67l2.46,2.94-2.37.97Zm-3.41-5.67h1.09c.6,0,.93-.31.93-.92s-.33-.9-.93-.9h-1.09v1.81Z"/>
      <path class="cls-1" d="m42.96,8.73c0-.29.03-.56.04-.68l-2.77,2.37-2.83-2.4c.01.17.04.48.04.76v4.29h-2.57V2.85l4.46,3.75c.29.24.66.59.87.78.22-.21.62-.55.87-.78l4.45-3.75v10.23h-2.56v-4.35Z"/>
      <path class="cls-1" d="m55.23,11.58h-4.89l-.96,1.75-2.68-.75,6.09-9.51,5.98,9.51-2.55.73-.99-1.74Zm-4.39-10.14l3.12-1.44.97,1.82-3.27,1.12-.83-1.5Zm.66,8.13h2.56l-1.3-2.27-1.26,2.27Z"/>
      <path class="cls-1" d="m62.95,5.54c-.55-.02-.93.27-.93.72s.27.7.92.88l.88.24c1.65.42,2.57,1.39,2.57,2.89,0,1.75-1.56,2.97-3.53,2.97-1.51,0-2.79-.69-3.67-1.8l1.86-1.35c.5.59,1.17.96,1.83.96.57,0,.9-.28.94-.71.04-.47-.29-.69-1-.9l-.75-.22c-1.7-.49-2.62-1.47-2.62-2.99,0-1.67,1.46-2.93,3.33-2.93,1.51,0,2.66.63,3.58,1.89l-1.83,1.22c-.6-.64-1.06-.86-1.58-.88Z"/>
    </g>
  </g>
</svg>