<?xml version="1.0" encoding="UTF-8"?>
<svg id="Layer_2" data-name="Layer 2" xmlns="http://www.w3.org/2000/svg" viewBox="0 0 100.69 63.94">
  <defs>
    <style>
      .cls-1 {
        fill: #f93;
      }
    </style>
  </defs>
  <g id="grafiko">
    <g>
      <g>
        <path class="cls-1" d="m0,54.28h2.47l-.03,1c.63-.71,1.54-1.11,2.52-1.11,2.13,0,3.64,1.62,3.64,3.9s-1.51,3.9-3.64,3.9c-1.01,0-1.91-.39-2.49-1.08v3.04H0v-9.66Zm6.06,3.85c0-1.08-.77-1.83-1.86-1.83s-1.86.76-1.86,1.83c0,1,.79,1.74,1.86,1.74s1.86-.71,1.86-1.74Z"/>
        <path class="cls-1" d="m9.9,58.05c0-2.28,1.52-3.9,3.65-3.9.97,0,1.89.41,2.52,1.11l-.03-1h2.48v7.59h-2.48l.03-1c-.63.71-1.54,1.11-2.52,1.11-2.13,0-3.65-1.62-3.65-3.9Zm6.27-.06c0-1-.79-1.74-1.86-1.74s-1.86.71-1.86,1.74.76,1.83,1.86,1.83,1.86-.76,1.86-1.83Z"/>
        <path class="cls-1" d="m23.21,58.5v3.34h-2.47v-7.56h2.47l-.07,1.03c.43-.8,1.29-1.29,2.59-1.13v2.25c-1.88-.18-2.52.79-2.52,2.07Z"/>
        <path class="cls-1" d="m26.44,58.05c0-2.28,1.52-3.9,3.65-3.9.97,0,1.89.41,2.52,1.11l-.03-1h2.48v7.59h-2.48l.03-1c-.63.71-1.54,1.11-2.52,1.11-2.13,0-3.65-1.62-3.65-3.9Zm6.27-.06c0-1-.79-1.74-1.86-1.74s-1.86.71-1.86,1.74.76,1.83,1.86,1.83,1.86-.76,1.86-1.83Z"/>
        <path class="cls-1" d="m39.75,58.5v3.34h-2.47v-7.56h2.47l-.07,1.03c.43-.8,1.29-1.29,2.59-1.13v2.25c-1.88-.18-2.52.79-2.52,2.07Z"/>
        <path class="cls-1" d="m56.91,57.79c0-1.1-.3-1.52-1.08-1.52s-1.17.47-1.17,1.32v4.25h-2.49v-4.23c0-.94-.31-1.33-1.06-1.33s-1.16.47-1.16,1.32v4.25h-2.47v-7.58h2.47v.75c.42-.6,1-.88,1.84-.88.95,0,1.65.4,2.03,1.16.5-.69,1.33-1.16,2.5-1.16,1.92,0,3.07,1.36,3.07,3.63v4.08h-2.47v-4.05Z"/>
        <path class="cls-1" d="m61.42,58.09v-3.83h2.55v3.75c0,1.24.37,1.8,1.33,1.8,1.07,0,1.57-.59,1.57-1.69v-3.86h2.48v7.58h-2.48v-.83c-.47.55-1.28.9-2.18.9-2.22,0-3.28-1.29-3.28-3.83Zm1.95-5.96l3.12-1.44.97,1.81-3.27,1.12-.83-1.5Z"/>
        <path class="cls-1" d="m74.26,61.98c-1.36.01-2.49-.54-3.31-1.19l1.38-1.52c.49.42,1.19.78,1.73.78.44,0,.7-.18.7-.46s-.22-.46-.78-.55c-1.82-.33-2.75-1.18-2.75-2.48,0-1.37,1.18-2.37,2.87-2.42,1.14-.03,2.25.49,2.92,1.24l-1.34,1.29c-.36-.37-.9-.62-1.35-.62-.48,0-.75.17-.75.46s.23.44.83.54c1.8.32,2.77,1.26,2.77,2.59s-1.22,2.31-2.91,2.33Z"/>
        <path class="cls-1" d="m78.45,51.78c0-.77.68-1.29,1.52-1.29s1.5.52,1.5,1.29-.68,1.27-1.5,1.27-1.52-.51-1.52-1.27Zm.3,2.5h2.47v7.56h-2.47v-7.56Z"/>
        <path class="cls-1" d="m82.93,58.06c0-2.14,1.56-3.93,4.14-3.93,1.42,0,2.68.41,3.96,1.91l-1.76,1.3c-.73-.88-1.35-1.09-2.02-1.09-1.16,0-1.79.79-1.79,1.78s.63,1.79,1.79,1.79c.67,0,1.29-.21,2.02-1.09l1.77,1.36c-1.28,1.48-2.55,1.9-3.97,1.9-2.58,0-4.14-1.78-4.14-3.93Z"/>
        <path class="cls-1" d="m92.08,58.05c0-2.28,1.52-3.9,3.65-3.9.97,0,1.89.41,2.52,1.11l-.03-1h2.48v7.59h-2.48l.03-1c-.63.71-1.54,1.11-2.52,1.11-2.13,0-3.65-1.62-3.65-3.9Zm6.27-.06c0-1-.79-1.74-1.86-1.74s-1.86.71-1.86,1.74.76,1.83,1.86,1.83,1.86-.76,1.86-1.83Z"/>
      </g>
      <rect class="cls-1" x="31.63" width="37.43" height="37.43"/>
    </g>
  </g>
</svg>