<?xml version="1.0" encoding="UTF-8"?>
<svg id="Layer_2" data-name="Layer 2" xmlns="http://www.w3.org/2000/svg" viewBox="0 0 168.57 14.22">
  <defs>
    <style>
      .cls-1 {
        fill: #fff;
      }
    </style>
  </defs>
  <g id="grafiko">
    <g>
      <path class="cls-1" d="m5.89,0h1.47v10.81h-1.47v-1.05c-.46.79-1.47,1.23-2.42,1.23-1.9,0-3.48-1.47-3.48-3.69s1.58-3.67,3.46-3.67c.99,0,1.96.42,2.43,1.21V0Zm-.01,7.29c0-1.41-1.16-2.28-2.24-2.28-1.2,0-2.17.96-2.17,2.28s.97,2.33,2.17,2.33,2.24-.92,2.24-2.33Z"/>
      <path class="cls-1" d="m9.1,7.3c0-2.22,1.68-3.67,3.68-3.67s3.69,1.45,3.69,3.67-1.7,3.69-3.69,3.69-3.68-1.47-3.68-3.69Zm5.9,0c0-1.35-1.02-2.29-2.22-2.29s-2.21.94-2.21,2.29,1,2.31,2.21,2.31,2.22-.95,2.22-2.31Z"/>
      <path class="cls-1" d="m25.59,7.3c0,2.22-1.59,3.69-3.48,3.69-.95,0-1.96-.44-2.43-1.23v1.05h-1.47V0h1.47v4.84c.47-.79,1.44-1.21,2.43-1.21,1.9,0,3.48,1.44,3.48,3.67Zm-1.49-.02c0-1.32-.96-2.28-2.17-2.28-1.08,0-2.23.87-2.23,2.28s1.06,2.33,2.23,2.33,2.17-1.02,2.17-2.33Z"/>
      <path class="cls-1" d="m27.33,10.81V0h1.47v10.81h-1.47Z"/>
      <path class="cls-1" d="m37.67,7.9h-5.58c.2,1.14,1.04,1.72,2.16,1.72.83,0,1.59-.38,1.98-1.02l1.17.58c-.61,1.17-1.88,1.8-3.21,1.8-2.02,0-3.61-1.49-3.61-3.71s1.62-3.66,3.61-3.66,3.51,1.44,3.51,3.64c0,.2-.02.41-.03.63Zm-1.44-1.19c-.15-1.1-.94-1.73-2.02-1.73s-1.89.56-2.1,1.73h4.12Z"/>
      <path class="cls-1" d="m42.69,7.3c0-2.22,1.75-3.67,3.78-3.67,1.14,0,2.11.46,2.73,1.2l-.97.92c-.41-.45-1.02-.73-1.73-.73-1.3,0-2.34.96-2.34,2.29s1.04,2.31,2.34,2.31c.71,0,1.32-.29,1.73-.74l.97.92c-.62.73-1.59,1.2-2.73,1.2-2.03,0-3.78-1.47-3.78-3.69Z"/>
      <path class="cls-1" d="m50.79,10.81V0h1.47v10.81h-1.47Z"/>
      <path class="cls-1" d="m54.2,1.26c0-.54.46-.94,1-.94s1,.4,1,.94-.45.94-1,.94-1-.4-1-.94Zm.27,9.55V3.81h1.47v7h-1.47Z"/>
      <path class="cls-1" d="m57.67,7.3c0-2.22,1.75-3.67,3.78-3.67,1.14,0,2.11.46,2.73,1.2l-.97.92c-.41-.45-1.02-.73-1.73-.73-1.3,0-2.34.96-2.34,2.29s1.04,2.31,2.34,2.31c.71,0,1.32-.29,1.73-.74l.97.92c-.62.73-1.59,1.2-2.73,1.2-2.03,0-3.78-1.47-3.78-3.69Z"/>
      <path class="cls-1" d="m72.22,10.81h-1.92l-3.06-3.33v3.33h-1.47V0h1.47v6.19l2.29-2.39h2l-2.96,3.03,3.65,3.97Z"/>
      <path class="cls-1" d="m84.01,7.32c0,2.23-1.58,3.67-3.48,3.67-.99,0-1.96-.42-2.43-1.22v4.44h-1.47V3.81h1.47v1.05c.47-.79,1.49-1.23,2.43-1.23,1.89,0,3.48,1.47,3.48,3.69Zm-1.49.01c0-1.32-.96-2.32-2.17-2.32s-2.23.92-2.23,2.32,1.15,2.28,2.23,2.28c1.21,0,2.17-.96,2.17-2.28Z"/>
      <path class="cls-1" d="m91.2,3.81h1.47v7h-1.47v-1.19c-.45.81-1.41,1.37-2.49,1.37-1.83,0-3.41-1.53-3.41-3.69s1.49-3.67,3.46-3.67c1.02,0,1.98.44,2.43,1.23v-1.05Zm-.02,3.5c0-1.35-1.12-2.29-2.25-2.29-1.2,0-2.14,1.05-2.14,2.29s.95,2.31,2.17,2.31,2.22-.99,2.22-2.31Z"/>
      <path class="cls-1" d="m99.53,3.88l-.25,1.4c-.39-.18-.75-.24-1.04-.24-1.28,0-1.88,1.37-1.88,3.25v2.52h-1.49V3.81h1.49v1.58c.36-1.23,1.06-1.75,1.96-1.75.48,0,.97.12,1.2.25Z"/>
      <path class="cls-1" d="m105.99,3.81h1.47v7h-1.47v-1.19c-.45.81-1.41,1.37-2.49,1.37-1.83,0-3.41-1.53-3.41-3.69s1.49-3.67,3.46-3.67c1.02,0,1.98.44,2.43,1.23v-1.05Zm-.02,3.5c0-1.35-1.12-2.29-2.25-2.29-1.2,0-2.14,1.05-2.14,2.29s.95,2.31,2.17,2.31,2.22-.99,2.22-2.31Z"/>
      <path class="cls-1" d="m118.05,3.88l-.25,1.4c-.39-.18-.75-.24-1.04-.24-1.28,0-1.88,1.37-1.88,3.25v2.52h-1.49V3.81h1.49v1.58c.36-1.23,1.06-1.75,1.96-1.75.48,0,.97.12,1.2.25Z"/>
      <path class="cls-1" d="m125.73,7.9h-5.58c.2,1.14,1.04,1.72,2.16,1.72.83,0,1.59-.38,1.98-1.02l1.17.58c-.61,1.17-1.88,1.8-3.21,1.8-2.02,0-3.61-1.49-3.61-3.71s1.62-3.66,3.61-3.66,3.51,1.44,3.51,3.64c0,.2-.02.41-.03.63Zm-1.44-1.19c-.15-1.1-.94-1.73-2.02-1.73s-1.89.56-2.1,1.73h4.12Z"/>
      <path class="cls-1" d="m127.21,1.26c0-.54.46-.94,1-.94s1,.4,1,.94-.45.94-1,.94-1-.4-1-.94Zm.27,9.55V3.81h1.47v7h-1.47Z"/>
      <path class="cls-1" d="m137.71,6.81v4h-1.47v-3.92c0-1.14-.69-1.83-1.59-1.83s-2.03.52-2.03,1.98v3.76h-1.47V3.81h1.47v1.08c.41-.87,1.53-1.26,2.28-1.26,1.77,0,2.82,1.19,2.8,3.18Z"/>
      <path class="cls-1" d="m139.54,1.26c0-.54.46-.94,1-.94s1,.4,1,.94-.45.94-1,.94-1-.4-1-.94Zm.27,9.55V3.81h1.47v7h-1.47Z"/>
      <path class="cls-1" d="m143.02,7.3c0-2.22,1.75-3.67,3.78-3.67,1.14,0,2.11.46,2.73,1.2l-.97.92c-.41-.45-1.02-.73-1.73-.73-1.3,0-2.34.96-2.34,2.29s1.04,2.31,2.34,2.31c.71,0,1.32-.29,1.73-.74l.97.92c-.62.73-1.59,1.2-2.73,1.2-2.03,0-3.78-1.47-3.78-3.69Z"/>
      <path class="cls-1" d="m150.85,1.26c0-.54.46-.94,1-.94s1,.4,1,.94-.45.94-1,.94-1-.4-1-.94Zm.27,9.55V3.81h1.47v7h-1.47Z"/>
      <path class="cls-1" d="m160.24,3.81h1.47v7h-1.47v-1.19c-.45.81-1.41,1.37-2.49,1.37-1.83,0-3.41-1.53-3.41-3.69s1.49-3.67,3.46-3.67c1.02,0,1.98.44,2.43,1.23v-1.05Zm-.02,3.5c0-1.35-1.12-2.29-2.25-2.29-1.2,0-2.14,1.05-2.14,2.29s.95,2.31,2.17,2.31,2.22-.99,2.22-2.31Z"/>
      <path class="cls-1" d="m168.57,3.88l-.25,1.4c-.39-.18-.75-.24-1.04-.24-1.28,0-1.88,1.37-1.88,3.25v2.52h-1.49V3.81h1.49v1.58c.36-1.23,1.06-1.75,1.96-1.75.48,0,.97.12,1.2.25Z"/>
    </g>
  </g>
</svg>