<?xml version="1.0" encoding="UTF-8"?>
<svg id="Layer_2" data-name="Layer 2" xmlns="http://www.w3.org/2000/svg" viewBox="0 0 157.81 14.25">
  <defs>
    <style>
      .cls-1 {
        fill: #fff;
      }
    </style>
  </defs>
  <g id="grafiko">
    <g>
      <path class="cls-1" d="m0,7.29c0-2.22,1.8-3.66,3.84-3.66,1.28,0,2.29.58,2.96,1.5l-1.48,1.03c-.32-.44-.9-.71-1.46-.71-1.11,0-1.86.81-1.86,1.83s.75,1.88,1.86,1.88c.55,0,1.14-.27,1.46-.71l1.48,1.04c-.66.92-1.68,1.5-2.96,1.5-2.04,0-3.84-1.49-3.84-3.71Z"/>
      <path class="cls-1" d="m8.21,10.81V0h1.96v10.81h-1.96Z"/>
      <path class="cls-1" d="m11.88,1.4c0-.66.57-1.17,1.25-1.17s1.25.51,1.25,1.17-.55,1.18-1.25,1.18-1.25-.52-1.25-1.18Zm.27,9.42V3.81h1.96v7h-1.96Z"/>
      <path class="cls-1" d="m15.66,7.29c0-2.22,1.8-3.66,3.84-3.66,1.28,0,2.29.58,2.96,1.5l-1.48,1.03c-.32-.44-.9-.71-1.46-.71-1.11,0-1.86.81-1.86,1.83s.75,1.88,1.86,1.88c.55,0,1.14-.27,1.46-.71l1.48,1.04c-.66.92-1.68,1.5-2.96,1.5-2.04,0-3.84-1.49-3.84-3.71Z"/>
      <path class="cls-1" d="m30.73,10.81h-2.44l-2.46-3.03v3.03h-1.96V0h1.96v5.95l1.77-2.15h2.52l-2.73,3.09,3.34,3.92Z"/>
      <path class="cls-1" d="m42.54,7.3c0,2.26-1.63,3.69-3.43,3.69-.79,0-1.75-.33-2.25-1.05v4.31h-1.96V3.81h1.96v.85c.5-.7,1.46-1.03,2.25-1.03,1.8,0,3.43,1.44,3.43,3.67Zm-2.01.02c0-1.04-.81-1.86-1.8-1.86s-1.82.79-1.82,1.86.9,1.84,1.82,1.84c.99,0,1.8-.81,1.8-1.84Z"/>
      <path class="cls-1" d="m49.36,3.81h1.96v7h-1.96v-1c-.46.72-1.37,1.19-2.31,1.19-1.94,0-3.38-1.5-3.38-3.67s1.41-3.69,3.42-3.69c.9,0,1.8.39,2.26,1.11v-.93Zm-.06,3.51c0-1.07-.85-1.86-1.83-1.86s-1.79.84-1.79,1.86.76,1.84,1.8,1.84,1.81-.84,1.81-1.84Z"/>
      <path class="cls-1" d="m58.42,3.85l-.45,1.87c-.42-.22-.76-.25-1-.25-1,0-1.69.94-1.69,2.94v2.4h-1.96V3.81h1.95v1.5c.39-1.17,1.19-1.68,2.06-1.68.38,0,.79.06,1.11.23Z"/>
      <path class="cls-1" d="m64.53,3.81h1.96v7h-1.96v-1c-.46.72-1.37,1.19-2.31,1.19-1.94,0-3.38-1.5-3.38-3.67s1.41-3.69,3.42-3.69c.9,0,1.8.39,2.26,1.11v-.93Zm-.06,3.51c0-1.07-.85-1.86-1.83-1.86s-1.79.84-1.79,1.86.76,1.84,1.8,1.84,1.81-.84,1.81-1.84Z"/>
      <path class="cls-1" d="m71.77,1.4c0-.66.57-1.17,1.25-1.17s1.25.51,1.25,1.17-.55,1.18-1.25,1.18-1.25-.52-1.25-1.18Zm.27,9.42V3.81h1.96v7h-1.96Z"/>
      <path class="cls-1" d="m81.1,3.85l-.45,1.87c-.42-.22-.76-.25-1-.25-1,0-1.69.94-1.69,2.94v2.4h-1.96V3.81h1.95v1.5c.39-1.17,1.19-1.68,2.06-1.68.38,0,.79.06,1.11.23Z"/>
      <path class="cls-1" d="m90.6,3.81h1.96v7h-1.96v-1c-.46.72-1.37,1.19-2.31,1.19-1.94,0-3.38-1.5-3.38-3.67s1.41-3.69,3.42-3.69c.9,0,1.8.39,2.26,1.11v-.93Zm-.06,3.51c0-1.07-.85-1.86-1.83-1.86s-1.79.84-1.79,1.86.76,1.84,1.8,1.84,1.81-.84,1.81-1.84Z"/>
      <path class="cls-1" d="m98.11,10.81V0h1.96v10.81h-1.96Z"/>
      <path class="cls-1" d="m107.32,3.81h1.96v7h-1.96v-1c-.46.72-1.37,1.19-2.31,1.19-1.94,0-3.38-1.5-3.38-3.67s1.41-3.69,3.42-3.69c.9,0,1.8.39,2.26,1.11v-.93Zm-.06,3.51c0-1.07-.85-1.86-1.83-1.86s-1.79.84-1.79,1.86.76,1.84,1.8,1.84,1.81-.84,1.81-1.84Z"/>
      <path class="cls-1" d="m118.96,3.81v1.53h-1.49v5.47h-1.96v-5.47h-1.28v-1.53h1.28V1.26h1.96v2.55h1.49Z"/>
      <path class="cls-1" d="m119.97,1.4c0-.66.57-1.17,1.25-1.17s1.25.51,1.25,1.17-.55,1.18-1.25,1.18-1.25-.52-1.25-1.18Zm.27,9.42V3.81h1.96v7h-1.96Z"/>
      <path class="cls-1" d="m131.08,7.95h-5.26c.21.82.87,1.3,1.8,1.3.72,0,1.41-.33,1.84-.82l1.14,1.15c-.66.88-1.88,1.41-3.11,1.41-2.16,0-3.73-1.52-3.73-3.67,0-2.27,1.72-3.69,3.72-3.69s3.64,1.42,3.64,3.57c0,.19-.01.44-.04.75Zm-1.93-1.27c-.06-.83-.74-1.35-1.62-1.35-.81,0-1.5.4-1.71,1.35h3.33Z"/>
      <path class="cls-1" d="m139.48,6.97v3.84h-1.96v-3.73c0-1.09-.66-1.59-1.33-1.59s-1.58.38-1.58,1.65v3.67h-1.96V3.81h1.96v1.14c.33-.92,1.42-1.32,2.1-1.32,1.83,0,2.79,1.24,2.78,3.34Z"/>
      <path class="cls-1" d="m146.64,0h1.96v10.81h-1.96v-.87c-.5.72-1.47,1.05-2.25,1.05-1.8,0-3.43-1.44-3.43-3.69s1.63-3.67,3.43-3.67c.81,0,1.75.31,2.25,1.03V0Zm-.06,7.3c0-1.08-.9-1.85-1.81-1.85-.99,0-1.82.81-1.82,1.85s.83,1.86,1.82,1.86,1.81-.79,1.81-1.86Z"/>
      <path class="cls-1" d="m155.85,3.81h1.96v7h-1.96v-1c-.46.72-1.37,1.19-2.31,1.19-1.94,0-3.38-1.5-3.38-3.67s1.41-3.69,3.42-3.69c.9,0,1.8.39,2.26,1.11v-.93Zm-.06,3.51c0-1.07-.85-1.86-1.83-1.86s-1.79.84-1.79,1.86.76,1.84,1.8,1.84,1.81-.84,1.81-1.84Z"/>
    </g>
  </g>
</svg>