<?xml version="1.0" encoding="UTF-8"?>
<svg id="Layer_2" data-name="Layer 2" xmlns="http://www.w3.org/2000/svg" viewBox="0 0 409.33 112.54">
  <defs>
    <style>
      .cls-1 {
        fill: #fff;
      }
    </style>
  </defs>
  <g id="imagotipo">
    <g>
      <path class="cls-1" d="m52.71,107.32h-26.75V30.71H.16l-.16-24.69h78.51v24.69h-25.8v76.61Z"/>
      <path class="cls-1" d="m117.19,58.72l-10.5,48.59h-27.22L102.27,0l64.13,62.52c.09-1.9.5-4.59,1.07-7.28l10.44-49.23h27.07l-22.64,106.53-63.92-61.89c-.06,2.53-.69,5.54-1.24,8.07Z"/>
      <path class="cls-1" d="m312.2,82.47l-5.6,24.85h-97.5l68.33-76.45h-48.28l5.28-24.85h97.03l-67.22,76.45h47.96Z"/>
      <path class="cls-1" d="m373.08,27.71c-5.86-.17-9.81,2.85-9.81,7.55s2.88,7.4,9.66,9.23l9.34,2.52c17.37,4.42,27.07,14.72,27.07,30.55,0,18.52-16.46,31.34-37.2,31.34-15.99,0-29.44-7.28-38.78-18.99l19.63-14.23c5.22,6.23,12.35,10.16,19.31,10.16,6.02,0,9.53-2.97,9.97-7.54.47-4.92-3.03-7.31-10.61-9.5l-7.91-2.29c-17.97-5.21-27.7-15.53-27.7-31.52,0-17.57,15.35-30.87,35.14-30.87,15.99,0,28.02,6.65,37.83,19.94l-19.31,12.88c-6.33-6.71-11.24-9.08-16.62-9.23Z"/>
    </g>
  </g>
</svg>