<?xml version="1.0" encoding="UTF-8"?>
<svg id="Layer_2" data-name="Layer 2" xmlns="http://www.w3.org/2000/svg" viewBox="0 0 148.9 80.55">
  <defs>
    <style>
      .cls-1 {
        fill: #fff;
      }

      .cls-2 {
        fill: #f93;
      }
    </style>
  </defs>
  <g id="grafiko">
    <g>
      <path id="middleTop" class="cls-1" d="m96.27,19.78h52.63l-105.26,60.77,52.63-60.77Z"/>
      <g>
        <path class="cls-2" d="m2.57,10.74h3.34v2.34H0V3.48h5.9v2.34h-3.33v1.38h3.2v2.16h-3.2v1.38Z"/>
        <path class="cls-2" d="m11.19,5.54c-.55-.02-.93.27-.93.72s.27.7.92.88l.88.24c1.65.42,2.57,1.4,2.57,2.9,0,1.75-1.56,2.97-3.53,2.97-1.51,0-2.79-.69-3.67-1.8l1.86-1.35c.5.59,1.17.96,1.83.96.57,0,.9-.28.94-.71.04-.47-.29-.69-1-.9l-.75-.22c-1.7-.49-2.62-1.47-2.62-2.99,0-1.67,1.46-2.93,3.33-2.93,1.51,0,2.66.63,3.58,1.89l-1.83,1.22c-.6-.64-1.06-.86-1.58-.88Z"/>
        <path class="cls-2" d="m21.38,13.23c-3.17,0-5.42-2.07-5.42-4.96s2.27-4.93,5.42-4.93c1.82,0,3.6.85,4.95,2.38l-1.92,1.41c-.9-1.01-1.87-1.5-2.97-1.5-1.6,0-2.82,1.14-2.82,2.63s1.21,2.66,2.82,2.66c1.1,0,2.07-.51,2.97-1.56l1.92,1.44c-1.35,1.54-3.13,2.42-4.95,2.42Z"/>
        <path class="cls-2" d="m32.48,13.21c-3.06,0-4.77-1.9-4.77-4.9V3.48h2.58v4.83c0,1.58.69,2.52,2.19,2.52s2.19-.94,2.19-2.5V3.48h2.61v4.84c0,2.97-1.75,4.89-4.8,4.89Z"/>
        <path class="cls-2" d="m44.57,13.23c-3.17,0-5.42-2.07-5.42-4.96s2.27-4.93,5.42-4.93c1.82,0,3.6.85,4.95,2.38l-1.92,1.41c-.9-1.01-1.87-1.5-2.97-1.5-1.6,0-2.82,1.14-2.82,2.63s1.21,2.66,2.82,2.66c1.1,0,2.07-.51,2.97-1.56l1.92,1.44c-1.35,1.54-3.13,2.42-4.95,2.42Z"/>
        <path class="cls-2" d="m57.86,9.43h-4.18v3.65h-2.58V3.48h2.58v3.61h4.21v-3.61h2.58v9.6h-2.58l-.03-3.65Z"/>
        <path class="cls-2" d="m70.16,11.58h-4.89l-.96,1.75-2.68-.75,6.09-9.51,5.98,9.51-2.55.73-.99-1.74Zm-3.73-2.01h2.56l-1.3-2.27-1.26,2.27Z"/>
        <path class="cls-2" d="m80.9,13.26l-2.51-3.38h-.89v3.19h-2.58V3.48h3.46c2.36,0,3.78,1.2,3.78,3.19,0,1.22-.46,2.14-1.35,2.67l2.46,2.94-2.36.97Zm-3.41-5.67h1.09c.6,0,.93-.31.93-.92s-.33-.9-.93-.9h-1.09v1.81Z"/>
        <path class="cls-2" d="m96.52,8.73c0-.29.03-.56.04-.68l-2.77,2.37-2.83-2.4c.01.17.04.48.04.76v4.29h-2.57V2.85l4.46,3.75c.29.24.66.59.87.78.22-.21.62-.56.87-.78l4.45-3.75v10.23h-2.56v-4.35Z"/>
        <path class="cls-2" d="m106.27,13.21c-3.06,0-4.77-1.9-4.77-4.9V3.48h2.58v4.83c0,1.58.69,2.52,2.19,2.52s2.19-.94,2.19-2.5V3.48h2.61v4.84c0,2.97-1.75,4.89-4.8,4.89Zm-1.93-11.77l3.12-1.44.98,1.81-3.27,1.12-.82-1.5Z"/>
        <path class="cls-2" d="m116.46,5.54c-.55-.02-.93.27-.93.72s.27.7.92.88l.88.24c1.65.42,2.57,1.4,2.57,2.9,0,1.75-1.56,2.97-3.53,2.97-1.51,0-2.79-.69-3.67-1.8l1.86-1.35c.5.59,1.17.96,1.83.96.57,0,.9-.28.94-.71.04-.47-.29-.69-1-.9l-.75-.22c-1.7-.49-2.62-1.47-2.62-2.99,0-1.67,1.46-2.93,3.33-2.93,1.51,0,2.66.63,3.58,1.89l-1.83,1.22c-.6-.64-1.06-.86-1.58-.88Z"/>
        <path class="cls-2" d="m121.77,3.48h2.58v9.6h-2.58V3.48Z"/>
        <path class="cls-2" d="m131.82,13.23c-3.17,0-5.42-2.07-5.42-4.96s2.27-4.93,5.42-4.93c1.82,0,3.6.85,4.95,2.38l-1.92,1.41c-.9-1.01-1.87-1.5-2.97-1.5-1.6,0-2.82,1.14-2.82,2.63s1.21,2.66,2.82,2.66c1.1,0,2.07-.51,2.97-1.56l1.92,1.44c-1.35,1.54-3.13,2.42-4.95,2.42Z"/>
        <path class="cls-2" d="m145.36,11.58h-4.89l-.96,1.75-2.68-.75,6.09-9.51,5.98,9.51-2.55.73-.99-1.74Zm-3.73-2.01h2.56l-1.3-2.27-1.26,2.27Z"/>
      </g>
    </g>
  </g>
</svg>