<?xml version="1.0" encoding="UTF-8"?>
<svg id="Layer_2" data-name="Layer 2" xmlns="http://www.w3.org/2000/svg" viewBox="0 0 409.33 363.18">
  <defs>
    <style>
      .cls-1 {
        fill: #fff;
      }
    </style>
  </defs>
  <g id="imagotipo">
    <g>
      <g>
        <polygon class="cls-1" points="409.33 0 301.61 62.19 344.7 87.07 258.52 87.07 237.24 124.53 215.44 161.7 108.24 186.57 64.63 161.7 107.72 223.89 280.07 223.89 323.15 199.01 323.15 124.38 409.33 99.51 366.24 49.75 409.33 0"/>
        <polygon class="cls-1" points="236.98 99.51 107.72 174.13 204.59 155.44 236.98 99.51"/>
        <polygon class="cls-1" points="172.35 124.38 258.52 74.63 215.44 74.63 172.35 124.38"/>
        <polygon class="cls-1" points="301.61 74.63 215.44 24.88 129.26 74.63 86.17 136.82 0 87.07 43.09 186.57 0 223.89 75.4 192.79 43.09 136.82 96.95 167.92 129.26 149.23 215.44 62.19 301.61 74.63"/>
      </g>
      <g>
        <path class="cls-1" d="m52.71,357.96h-26.75v-76.61H.16l-.16-24.69h78.51v24.69h-25.8v76.61Z"/>
        <path class="cls-1" d="m117.19,309.36l-10.5,48.59h-27.22l22.81-107.32,64.13,62.52c.09-1.9.5-4.59,1.07-7.28l10.44-49.23h27.07l-22.64,106.53-63.92-61.89c-.06,2.53-.69,5.54-1.24,8.07Z"/>
        <path class="cls-1" d="m312.2,333.1l-5.6,24.85h-97.5l68.33-76.45h-48.28l5.28-24.85h97.03l-67.22,76.45h47.96Z"/>
        <path class="cls-1" d="m373.08,278.35c-5.86-.17-9.81,2.85-9.81,7.55s2.88,7.4,9.66,9.23l9.34,2.52c17.37,4.42,27.07,14.72,27.07,30.55,0,18.52-16.46,31.34-37.2,31.34-15.99,0-29.44-7.28-38.78-18.99l19.63-14.23c5.22,6.23,12.35,10.16,19.31,10.16,6.02,0,9.53-2.97,9.97-7.54.47-4.92-3.03-7.31-10.61-9.5l-7.91-2.29c-17.97-5.21-27.7-15.53-27.7-31.52,0-17.57,15.35-30.87,35.14-30.87,15.99,0,28.02,6.65,37.83,19.94l-19.31,12.88c-6.33-6.71-11.24-9.08-16.62-9.23Z"/>
      </g>
    </g>
  </g>
</svg>